<svg xmlns="http://www.w3.org/2000/svg" width="512" height="512" viewBox="0 0 512 512">
  <defs>
    <linearGradient id="app-logo-bg" x1="15%" y1="85%" x2="85%" y2="15%">
      <stop offset="0.0%" stop-color="#0029c1"/>
      <stop offset="29.0%" stop-color="#3973ff"/>
      <stop offset="100.0%" stop-color="#0029c1"/>
    </linearGradient>
    <clipPath id="app-logo-clip"><path d="M256,0 L296.1,0.04 L312.71,0.15 L325.43,0.35 L336.15,0.62 L345.57,0.96 L354.06,1.39 L361.85,1.89 L369.07,2.47 L375.83,3.13 L382.19,3.87 L388.21,4.68 L393.93,5.57 L399.38,6.54 L404.59,7.6 L409.58,8.73 L414.37,9.94 L418.97,11.23 L423.39,12.6 L427.66,14.05 L431.77,15.59 L435.73,17.21 L439.55,18.91 L443.25,20.7 L446.81,22.57 L450.26,24.52 L453.58,26.57 L456.8,28.7 L459.9,30.92 L462.9,33.23 L465.79,35.64 L468.58,38.14 L471.27,40.73 L473.86,43.42 L476.36,46.21 L478.77,49.1 L481.08,52.1 L483.3,55.2 L485.43,58.42 L487.48,61.74 L489.43,65.19 L491.3,68.75 L493.09,72.45 L494.79,76.27 L496.41,80.23 L497.95,84.34 L499.4,88.61 L500.77,93.03 L502.06,97.63 L503.27,102.42 L504.4,107.41 L505.46,112.62 L506.43,118.07 L507.32,123.79 L508.13,129.81 L508.87,136.17 L509.53,142.93 L510.11,150.15 L510.61,157.94 L511.04,166.43 L511.38,175.85 L511.65,186.57 L511.85,199.29 L511.96,215.9 L512,256 L512,256 L511.96,296.1 L511.85,312.71 L511.65,325.43 L511.38,336.15 L511.04,345.57 L510.61,354.06 L510.11,361.85 L509.53,369.07 L508.87,375.83 L508.13,382.19 L507.32,388.21 L506.43,393.93 L505.46,399.38 L504.4,404.59 L503.27,409.58 L502.06,414.37 L500.77,418.97 L499.4,423.39 L497.95,427.66 L496.41,431.77 L494.79,435.73 L493.09,439.55 L491.3,443.25 L489.43,446.81 L487.48,450.26 L485.43,453.58 L483.3,456.8 L481.08,459.9 L478.77,462.9 L476.36,465.79 L473.86,468.58 L471.27,471.27 L468.58,473.86 L465.79,476.36 L462.9,478.77 L459.9,481.08 L456.8,483.3 L453.58,485.43 L450.26,487.48 L446.81,489.43 L443.25,491.3 L439.55,493.09 L435.73,494.79 L431.77,496.41 L427.66,497.95 L423.39,499.4 L418.97,500.77 L414.37,502.06 L409.58,503.27 L404.59,504.4 L399.38,505.46 L393.93,506.43 L388.21,507.32 L382.19,508.13 L375.83,508.87 L369.07,509.53 L361.85,510.11 L354.06,510.61 L345.57,511.04 L336.15,511.38 L325.43,511.65 L312.71,511.85 L296.1,511.96 L256,512 L256,512 L215.9,511.96 L199.29,511.85 L186.57,511.65 L175.85,511.38 L166.43,511.04 L157.94,510.61 L150.15,510.11 L142.93,509.53 L136.17,508.87 L129.81,508.13 L123.79,507.32 L118.07,506.43 L112.62,505.46 L107.41,504.4 L102.42,503.27 L97.63,502.06 L93.03,500.77 L88.61,499.4 L84.34,497.95 L80.23,496.41 L76.27,494.79 L72.45,493.09 L68.75,491.3 L65.19,489.43 L61.74,487.48 L58.42,485.43 L55.2,483.3 L52.1,481.08 L49.1,478.77 L46.21,476.36 L43.42,473.86 L40.73,471.27 L38.14,468.58 L35.64,465.79 L33.23,462.9 L30.92,459.9 L28.7,456.8 L26.57,453.58 L24.52,450.26 L22.57,446.81 L20.7,443.25 L18.91,439.55 L17.21,435.73 L15.59,431.77 L14.05,427.66 L12.6,423.39 L11.23,418.97 L9.94,414.37 L8.73,409.58 L7.6,404.59 L6.54,399.38 L5.57,393.93 L4.68,388.21 L3.87,382.19 L3.13,375.83 L2.47,369.07 L1.89,361.85 L1.39,354.06 L0.96,345.57 L0.62,336.15 L0.35,325.43 L0.15,312.71 L0.04,296.1 L0,256 L0,256 L0.04,215.9 L0.15,199.29 L0.35,186.57 L0.62,175.85 L0.96,166.43 L1.39,157.94 L1.89,150.15 L2.47,142.93 L3.13,136.17 L3.87,129.81 L4.68,123.79 L5.57,118.07 L6.54,112.62 L7.6,107.41 L8.73,102.42 L9.94,97.63 L11.23,93.03 L12.6,88.61 L14.05,84.34 L15.59,80.23 L17.21,76.27 L18.91,72.45 L20.7,68.75 L22.57,65.19 L24.52,61.74 L26.57,58.42 L28.7,55.2 L30.92,52.1 L33.23,49.1 L35.64,46.21 L38.14,43.42 L40.73,40.73 L43.42,38.14 L46.21,35.64 L49.1,33.23 L52.1,30.92 L55.2,28.7 L58.42,26.57 L61.74,24.52 L65.19,22.57 L68.75,20.7 L72.45,18.91 L76.27,17.21 L80.23,15.59 L84.34,14.05 L88.61,12.6 L93.03,11.23 L97.63,9.94 L102.42,8.73 L107.41,7.6 L112.62,6.54 L118.07,5.57 L123.79,4.68 L129.81,3.87 L136.17,3.13 L142.93,2.47 L150.15,1.89 L157.94,1.39 L166.43,0.96 L175.85,0.62 L186.57,0.35 L199.29,0.15 L215.9,0.04 L256,0 Z"/></clipPath>
  </defs>
  <rect width="512" height="512" fill="url(#app-logo-bg)" clip-path="url(#app-logo-clip)"/>
  <g transform="translate(51.20, 51.20) scale(12.8000) translate(0, 0)">
    <g fill="none"><path fill="#ffffff" d="M29.374 2h-4.17c-2.112 0-4.195.299-6.193.874l-1.992 3.17L14.013 5a22.4 22.4 0 0 0-3.269 2.3a19.02 19.02 0 0 0-6.72 14.51v3.25s.17-.3.49-.81c-.09.38-.13.59-.13.59v.22h3.92c2.08 0 4.08-.47 5.89-1.34c.21-.1.21-.4 0-.5l-2.17-1.01c-.13-.04-.09-.21.04-.21h4.53c.21 0 .41-.08.57-.21c1.33-1.14 2.45-2.54 3.27-4.15c.3-.6.87-1.67 1.18-2.25c.13-.24.12-.53-.02-.77l-1.36-2.24a.25.25 0 0 1 .21-.38l1.533-.994l2.044-1.998l2.76-2.002a46 46 0 0 1 3.043-3.816c.13-.14.2-.33.2-.52a.653.653 0 0 0-.65-.67"/><path fill="#b1b1b1" d="M14 12h9.114c.26 0 .51-.14.64-.36c.94-1.57 1.96-3.14 3.04-4.64h-7.79V2.88A22 22 0 0 0 14 5.016z"/><path fill="#dfdfdf" d="M25.284 4.14a.5.5 0 0 0-.65-.23c-4.6 2.07-8.74 4.94-12.34 8.53a41.6 41.6 0 0 0-8.92 13.22a42 42 0 0 0-1.35 3.67c-.09.3.08.61.38.66c.26.05.5-.11.57-.35c.38-1.21.82-2.41 1.32-3.59c2.04-4.83 4.97-9.18 8.7-12.9c3.51-3.51 7.55-6.3 12.04-8.32a.5.5 0 0 0 .25-.69q0 .015 0 0"/></g>
  </g>
</svg>